<svg xmlns="http://www.w3.org/2000/svg" width="800" height="500" viewBox="0 0 800 500">
  <defs>
    <linearGradient id="titlebar" x1="0%" y1="0%" x2="0%" y2="100%">
      <stop offset="0%" style="stop-color:#3a3a3c"/>
      <stop offset="100%" style="stop-color:#2d2d2f"/>
    </linearGradient>
  </defs>

  <!-- Window frame -->
  <rect width="800" height="500" rx="10" fill="#1e1e1e"/>

  <!-- Title bar -->
  <rect width="800" height="32" rx="10" fill="url(#titlebar)"/>
  <rect y="22" width="800" height="10" fill="url(#titlebar)"/>

  <!-- Traffic lights -->
  <circle cx="20" cy="16" r="6" fill="#ff5f57"/>
  <circle cx="40" cy="16" r="6" fill="#febc2e"/>
  <circle cx="60" cy="16" r="6" fill="#28c840"/>

  <!-- Title -->
  <text x="400" y="21" font-family="SF Pro, -apple-system, system-ui, sans-serif" font-size="13" fill="#999" text-anchor="middle">ollamacode — zsh</text>

  <!-- Terminal content -->
  <g font-family="SF Mono, Menlo, Monaco, monospace" font-size="13">
    <!-- ASCII Logo -->
    <text x="20" y="65" fill="#00bcd4" font-weight="bold">
   ____  _ _                       ____          _</text>
    <text x="20" y="82" fill="#00bcd4" font-weight="bold">
  / __ \| | | __ _ _ __ ___   __ _/ ___|___   __| | ___</text>
    <text x="20" y="99" fill="#00bcd4" font-weight="bold">
 | |  | | | |/ _` | '_ ` _ \ / _` | |   / _ \ / _` |/ _ \</text>
    <text x="20" y="116" fill="#00bcd4" font-weight="bold">
 | |__| | | | (_| | | | | | | (_| | |__| (_) | (_| |  __/</text>
    <text x="20" y="133" fill="#00bcd4" font-weight="bold">
  \____/|_|_|\__,_|_| |_| |_|\__,_|\____\___/ \__,_|\___|</text>

    <!-- Version info -->
    <text x="20" y="165" fill="#5c6bc0">Interactive CLI for Ollama - Version 2.1.0 (C++)</text>
    <text x="20" y="182" fill="#ffc107">Type '/help' for commands, '/exit' to quit</text>

    <!-- Configuration section -->
    <text x="20" y="214" fill="#00bcd4" font-weight="bold">Current Configuration:</text>
    <text x="30" y="234" fill="#888">Model:</text>
    <text x="150" y="234" fill="#4caf50">qwen3:4b</text>
    <text x="30" y="254" fill="#888">Host:</text>
    <text x="150" y="254" fill="#e0e0e0">http://localhost:11434</text>
    <text x="30" y="274" fill="#888">Temperature:</text>
    <text x="150" y="274" fill="#e0e0e0">0.7</text>
    <text x="30" y="294" fill="#888">Max Tokens:</text>
    <text x="150" y="294" fill="#e0e0e0">4096</text>
    <text x="30" y="314" fill="#888">Safe Mode:</text>
    <text x="150" y="314" fill="#4caf50">true</text>
    <text x="30" y="334" fill="#888">MCP Enabled:</text>
    <text x="150" y="334" fill="#f44336">false</text>
    <text x="30" y="354" fill="#888">Agent Mode:</text>
    <text x="150" y="354" fill="#4caf50">enabled</text>
    <text x="30" y="374" fill="#888">Current Agent:</text>
    <text x="150" y="374" fill="#4caf50">🤖 general</text>
    <text x="30" y="394" fill="#888">Working Dir:</text>
    <text x="150" y="394" fill="#e0e0e0">~/projects/myapp</text>

    <!-- Prompt -->
    <text x="20" y="440" fill="#00bcd4" font-weight="bold">You&gt;</text>
    <text x="60" y="440" fill="#e0e0e0">_</text>
  </g>
</svg>