<svg xmlns="http://www.w3.org/2000/svg" width="800" height="420" viewBox="0 0 800 420">
  <defs>
    <linearGradient id="titlebar" x1="0%" y1="0%" x2="0%" y2="100%">
      <stop offset="0%" style="stop-color:#3a3a3c"/>
      <stop offset="100%" style="stop-color:#2d2d2f"/>
    </linearGradient>
  </defs>

  <!-- Window frame -->
  <rect width="800" height="420" rx="10" fill="#1e1e1e"/>

  <!-- Title bar -->
  <rect width="800" height="32" rx="10" fill="url(#titlebar)"/>
  <rect y="22" width="800" height="10" fill="url(#titlebar)"/>

  <!-- Traffic lights -->
  <circle cx="20" cy="16" r="6" fill="#ff5f57"/>
  <circle cx="40" cy="16" r="6" fill="#febc2e"/>
  <circle cx="60" cy="16" r="6" fill="#28c840"/>

  <!-- Title -->
  <text x="400" y="21" font-family="SF Pro, -apple-system, system-ui, sans-serif" font-size="13" fill="#999" text-anchor="middle">ollamacode — zsh</text>

  <!-- Terminal content -->
  <g font-family="SF Mono, Menlo, Monaco, monospace" font-size="13">
    <!-- MCP command -->
    <text x="20" y="60" fill="#00bcd4" font-weight="bold">You&gt;</text>
    <text x="60" y="60" fill="#e0e0e0">/mcp on</text>

    <!-- MCP activation -->
    <text x="20" y="90" fill="#4caf50">✓ MCP enabled</text>
    <text x="20" y="112" fill="#888">Connecting to MCP servers...</text>

    <!-- Server connections -->
    <text x="30" y="140" fill="#9c27b0">[MCP]</text>
    <text x="80" y="140" fill="#4caf50">filesystem:</text>
    <text x="180" y="140" fill="#888">connected (8 tools)</text>

    <text x="30" y="162" fill="#9c27b0">[MCP]</text>
    <text x="80" y="162" fill="#4caf50">github:</text>
    <text x="180" y="162" fill="#888">connected (15 tools)</text>

    <!-- User query -->
    <text x="20" y="200" fill="#00bcd4" font-weight="bold">You&gt;</text>
    <text x="60" y="200" fill="#e0e0e0">List my recent GitHub issues</text>

    <!-- Tool execution -->
    <text x="20" y="232" fill="#ffc107">🔧 Executing 1 tool(s)...</text>

    <!-- MCP Tool details -->
    <rect x="20" y="248" width="350" height="55" rx="4" fill="#2a2a2a" stroke="#444" stroke-width="1"/>
    <text x="30" y="270" fill="#9c27b0" font-weight="bold">[MCP Tool: github/list_issues]</text>
    <text x="30" y="293" fill="#888">Repository:</text>
    <text x="120" y="293" fill="#e0e0e0">juergengp/ollamaCode</text>

    <!-- Results -->
    <text x="20" y="330" fill="#4caf50">✓ Success</text>

    <text x="20" y="358" fill="#e0e0e0">Found 3 open issues:</text>
    <text x="20" y="380" fill="#ffc107">#42</text>
    <text x="60" y="380" fill="#e0e0e0">- Add support for streaming responses</text>
    <text x="20" y="400" fill="#ffc107">#38</text>
    <text x="60" y="400" fill="#e0e0e0">- Improve error messages for tool failures</text>
  </g>
</svg>